<mxfile host="Electron" agent="Mozilla/5.0 (X11; Linux x86_64) AppleWebKit/537.36 (KHTML, like Gecko) draw.io/26.0.9 Chrome/128.0.6613.186 Electron/32.3.0 Safari/537.36" version="26.0.9">
  <diagram name="1" id="v78UHGKYpx8rpKMx-zi2">
    <mxGraphModel dx="2074" dy="1231" grid="1" gridSize="10" guides="1" tooltips="1" connect="1" arrows="1" fold="1" page="1" pageScale="1" pageWidth="200" pageHeight="180" math="0" shadow="0">
      <root>
        <mxCell id="BKdazhWuhiunEg_XWj6L-0" />
        <mxCell id="BKdazhWuhiunEg_XWj6L-1" parent="BKdazhWuhiunEg_XWj6L-0" />
        <mxCell id="BKdazhWuhiunEg_XWj6L-4" value="1" style="rounded=0;whiteSpace=wrap;html=1;fillColor=#f5f5f5;fontColor=#333333;strokeColor=#666666;" parent="BKdazhWuhiunEg_XWj6L-1" vertex="1">
          <mxGeometry x="40" y="40" width="40" height="20" as="geometry" />
        </mxCell>
        <mxCell id="BKdazhWuhiunEg_XWj6L-6" value="nums" style="text;html=1;align=center;verticalAlign=middle;whiteSpace=wrap;rounded=0;fontSize=10;" parent="BKdazhWuhiunEg_XWj6L-1" vertex="1">
          <mxGeometry x="40" y="120" width="40" height="20" as="geometry" />
        </mxCell>
        <mxCell id="0MSGtaZruwX8gGlGpGw8-1" style="edgeStyle=orthogonalEdgeStyle;rounded=0;orthogonalLoop=1;jettySize=auto;html=1;exitX=1;exitY=0.5;exitDx=0;exitDy=0;entryX=0;entryY=0.5;entryDx=0;entryDy=0;fillColor=#dae8fc;strokeColor=#6c8ebf;" parent="BKdazhWuhiunEg_XWj6L-1" source="BKdazhWuhiunEg_XWj6L-8" target="0MSGtaZruwX8gGlGpGw8-0" edge="1">
          <mxGeometry relative="1" as="geometry" />
        </mxCell>
        <mxCell id="BKdazhWuhiunEg_XWj6L-8" value="2" style="rounded=0;whiteSpace=wrap;html=1;fillColor=#dae8fc;strokeColor=#6c8ebf;fontColor=#333333;" parent="BKdazhWuhiunEg_XWj6L-1" vertex="1">
          <mxGeometry x="40" y="60" width="40" height="20" as="geometry" />
        </mxCell>
        <mxCell id="0MSGtaZruwX8gGlGpGw8-2" style="edgeStyle=orthogonalEdgeStyle;rounded=0;orthogonalLoop=1;jettySize=auto;html=1;exitX=1;exitY=0.5;exitDx=0;exitDy=0;fillColor=#dae8fc;strokeColor=#6c8ebf;" parent="BKdazhWuhiunEg_XWj6L-1" source="0MSGtaZruwX8gGlGpGw8-0" edge="1">
          <mxGeometry relative="1" as="geometry">
            <mxPoint x="160" y="80" as="targetPoint" />
          </mxGeometry>
        </mxCell>
        <mxCell id="i-Jp3sLyabwHl7Vijzl8-1" value="3" style="rounded=0;whiteSpace=wrap;html=1;fillColor=#dae8fc;strokeColor=#6c8ebf;fontColor=#333333;" parent="BKdazhWuhiunEg_XWj6L-1" vertex="1">
          <mxGeometry x="40" y="80" width="40" height="20" as="geometry" />
        </mxCell>
        <mxCell id="i-Jp3sLyabwHl7Vijzl8-3" value="4" style="rounded=0;whiteSpace=wrap;html=1;fillColor=#f5f5f5;fontColor=#333333;strokeColor=#666666;" parent="BKdazhWuhiunEg_XWj6L-1" vertex="1">
          <mxGeometry x="40" y="100" width="40" height="20" as="geometry" />
        </mxCell>
        <mxCell id="0MSGtaZruwX8gGlGpGw8-3" value="median" style="text;html=1;align=center;verticalAlign=middle;whiteSpace=wrap;rounded=0;fontSize=10;" parent="BKdazhWuhiunEg_XWj6L-1" vertex="1">
          <mxGeometry x="120" y="100" width="40" height="20" as="geometry" />
        </mxCell>
        <mxCell id="TPRdk9FkYrA5EM5iWgX_-1" value="" style="edgeStyle=orthogonalEdgeStyle;rounded=0;orthogonalLoop=1;jettySize=auto;html=1;exitX=1;exitY=0.5;exitDx=0;exitDy=0;fillColor=#dae8fc;strokeColor=#6c8ebf;" parent="BKdazhWuhiunEg_XWj6L-1" source="i-Jp3sLyabwHl7Vijzl8-1" target="0MSGtaZruwX8gGlGpGw8-0" edge="1">
          <mxGeometry relative="1" as="geometry">
            <mxPoint x="160" y="80" as="targetPoint" />
            <mxPoint x="80" y="90" as="sourcePoint" />
          </mxGeometry>
        </mxCell>
        <mxCell id="0MSGtaZruwX8gGlGpGw8-0" value="2.5" style="rounded=0;whiteSpace=wrap;html=1;fillColor=#f5f5f5;fontColor=#333333;strokeColor=#666666;" parent="BKdazhWuhiunEg_XWj6L-1" vertex="1">
          <mxGeometry x="120" y="60" width="40" height="40" as="geometry" />
        </mxCell>
      </root>
    </mxGraphModel>
  </diagram>
</mxfile>
